<svg width="148" height="145" viewBox="0 0 148 145" fill="none" xmlns="http://www.w3.org/2000/svg">
<path d="M73.7066 126.84C105.277 126.84 130.87 125.346 130.87 123.503C130.87 121.66 105.277 120.166 73.7066 120.166C42.1358 120.166 16.5427 121.66 16.5427 123.503C16.5427 125.346 42.1358 126.84 73.7066 126.84Z" fill="#F5F5F5"/>
<path d="M102.968 48.968L100.043 47.7887C100.043 47.7887 96.1841 54.8262 95.0785 55.1829C93.5749 55.6665 90.4615 57.0109 88.6159 57.2467C88.3653 57.5415 87.9555 58.4585 87.9938 58.7916C90.4733 59.6201 95.9217 58.5204 97.0892 57.6536C99.7456 55.6871 102.968 48.968 102.968 48.968Z" fill="#E58A7B"/>
<path d="M103.867 47.3671C104.413 49.3808 101.459 53.4317 101.459 53.4317L97.5875 51.2618C97.5875 51.2618 98.3128 49.596 99.1973 47.9007C100.615 45.1618 103.245 45.0704 103.867 47.3671Z" fill="#4CAF4F"/>
<path opacity="0.2" d="M103.867 47.3671C104.413 49.3808 101.459 53.4317 101.459 53.4317L97.5875 51.2618C97.5875 51.2618 98.3128 49.596 99.1973 47.9007C100.615 45.1618 103.245 45.0704 103.867 47.3671Z" fill="black"/>
<path opacity="0.2" d="M99.1235 52.1285L100.648 52.9835L100.916 48.3046C100.029 48.9856 99.4036 51.0376 99.1235 52.1285Z" fill="black"/>
<path d="M101.32 45.8517C101.32 45.8517 98.3069 52.556 100.064 65.039H111.937C112.125 63.2169 111.5 54.325 113.762 45.7396C112.459 45.4851 111.141 45.3167 109.817 45.2355C108.137 45.1381 106.453 45.1381 104.772 45.2355C103.608 45.3538 102.454 45.5597 101.32 45.8517Z" fill="#4CAF4F"/>
<path opacity="0.2" d="M101.32 45.8517C101.32 45.8517 98.3069 52.556 100.064 65.039H111.937C112.125 63.2169 111.5 54.325 113.762 45.7396C112.459 45.4851 111.141 45.3167 109.817 45.2355C108.137 45.1381 106.453 45.1381 104.772 45.2355C103.608 45.3538 102.454 45.5597 101.32 45.8517Z" fill="black"/>
<g style="mix-blend-mode:multiply">
<path d="M98.5663 123.768C98.5486 124.087 103.051 124.343 108.62 124.343C114.189 124.343 118.724 124.087 118.741 123.768C118.759 123.45 114.26 123.196 108.688 123.196C103.115 123.196 98.587 123.453 98.5663 123.768Z" fill="#E8ECF1"/>
</g>
<path d="M106.491 115.402L104.386 116.217L106.2 120.903L108.305 120.088L106.491 115.402Z" fill="#E58A7B"/>
<path d="M115.881 121.501H113.661L112.848 116.362H115.068L115.881 121.501Z" fill="#E58A7B"/>
<path d="M113.508 121.245H116.002C116.046 121.245 116.088 121.26 116.12 121.288C116.153 121.316 116.175 121.355 116.182 121.398L116.504 123.37C116.51 123.42 116.506 123.47 116.492 123.518C116.478 123.566 116.453 123.61 116.42 123.647C116.387 123.685 116.346 123.715 116.301 123.735C116.255 123.756 116.206 123.766 116.156 123.765C115.286 123.751 114.867 123.698 113.771 123.698C113.095 123.698 111.707 123.768 110.769 123.768C109.832 123.768 109.77 122.848 110.156 122.763C111.89 122.389 112.562 121.879 113.14 121.383C113.242 121.294 113.373 121.244 113.508 121.245Z" fill="#263238"/>
<path d="M106.138 120.484L108.496 119.794C108.538 119.782 108.583 119.785 108.623 119.802C108.664 119.819 108.697 119.85 108.717 119.888L109.602 121.657C109.622 121.702 109.633 121.751 109.632 121.8C109.632 121.85 109.621 121.898 109.6 121.943C109.579 121.988 109.548 122.027 109.511 122.059C109.473 122.09 109.428 122.113 109.381 122.126C108.523 122.362 107.948 122.506 106.875 122.819C106.135 123.034 105.38 123.385 104.649 123.618C104.142 123.78 102.95 123.786 102.334 123.786C101.423 123.786 101.22 122.825 101.612 122.781C102.6 122.672 102.732 122.722 103.278 122.447C104.17 122.057 104.979 121.499 105.66 120.802C105.788 120.656 105.953 120.546 106.138 120.484Z" fill="#263238"/>
<path d="M88.9874 57.2348L86.5462 56.2118L85.5409 58.9183C86.5415 59.0707 87.5593 59.0707 88.5599 58.9183L88.9874 57.2348Z" fill="#E58A7B"/>
<path d="M84.7301 56.1411L84.6653 57.9396L85.5409 58.9125L86.5463 56.206L84.7301 56.1411Z" fill="#E58A7B"/>
<path d="M106.78 115.8L104.668 116.615L105.603 119.038L107.716 118.223L106.78 115.8Z" fill="#CF6F64"/>
<path d="M115.068 116.362H112.848L113.269 119.013H115.489L115.068 116.362Z" fill="#CF6F64"/>
<path opacity="0.2" d="M99.6866 61.6632C99.7309 62.1968 99.781 62.7423 99.8459 63.3024L108.673 60.4367C110.051 60.0282 111.249 59.1619 112.069 57.9808C112.105 57.1936 112.149 56.3652 112.217 55.5013C112.246 55.0827 112.282 54.6522 112.32 54.2159C112.358 53.7795 112.411 53.296 112.467 52.8302L99.6866 61.6632Z" fill="black"/>
<path d="M102.57 51.9929L102.275 51.9575C102.449 50.4834 103.549 49.3218 104.708 49.3513V49.6461C103.693 49.6254 102.726 50.6721 102.57 51.9929Z" fill="white"/>
<path d="M104.142 54.7141H104.091V54.4193C105.106 54.4576 106.058 53.3992 106.214 52.0813L106.509 52.1167C106.353 53.5584 105.288 54.7141 104.142 54.7141Z" fill="white"/>
<path d="M109.652 39.5542C109.236 41.1787 108.747 44.1535 109.817 45.2355C109.817 45.2355 109.068 46.8836 106.052 46.8836C103.295 46.8836 104.772 45.2355 104.772 45.2355C106.606 44.8051 106.639 43.4665 106.397 42.1988L109.652 39.5542Z" fill="#E58A7B"/>
<path d="M108.325 40.6333L106.4 42.1988C106.46 42.4902 106.494 42.7861 106.503 43.0833C107.066 43.6435 108.195 42.2254 108.31 41.5001C108.369 41.2146 108.374 40.9207 108.325 40.6333Z" fill="#CF6F64"/>
<path d="M103.089 39.5335C103.223 39.7657 103.403 39.9677 103.619 40.127C103.835 40.2863 104.081 40.3994 104.342 40.4593C105.05 40.6155 105.403 39.964 105.209 39.3094C105.035 38.7198 104.454 37.9267 103.735 38.0623C103.581 38.0941 103.436 38.1623 103.314 38.2612C103.192 38.3602 103.095 38.487 103.032 38.6311C102.968 38.7751 102.941 38.9322 102.951 39.0893C102.961 39.2463 103.008 39.3986 103.089 39.5335Z" fill="#CF6F64"/>
<path d="M104.259 34.3357C103.157 34.8399 102.768 39.221 104.153 39.8696C105.539 40.5182 106.347 33.3775 104.259 34.3357Z" fill="#263238"/>
<path d="M109.988 37.1101C109.723 39.3095 109.693 40.6038 108.514 41.73C108.148 42.1038 107.687 42.3692 107.18 42.4972C106.673 42.6251 106.141 42.6104 105.642 42.4549C105.143 42.2993 104.696 42.0089 104.352 41.6156C104.008 41.2224 103.779 40.7416 103.69 40.2264C103.334 38.2511 103.826 34.9873 106.031 34.1117C106.495 33.9073 107.004 33.8306 107.507 33.8895C108.01 33.9484 108.488 34.1407 108.892 34.4466C109.296 34.7525 109.61 35.1607 109.803 35.6291C109.995 36.0974 110.059 36.6087 109.988 37.1101Z" fill="#E58A7B"/>
<path d="M106.365 35.4738C107.998 35.0581 109.198 34.7751 108.767 36.1342C108.198 37.9504 107.514 39.7075 108.431 39.7871C108.991 39.8373 111.468 38.7877 111.153 37.7234C110.878 36.7976 112.037 36.544 112.243 36.0753C113.007 34.3771 110.822 34.6011 111.211 33.5693C111.601 32.5374 109.443 30.8745 108.263 31.703C106.344 33.0415 103.051 33.0209 104.781 30.8185C106.023 29.2471 103.808 29.5685 103.808 29.5685C103.808 29.5685 105.147 30.3615 102.894 31.588C100.512 32.897 102.697 36.4143 106.365 35.4738Z" fill="#263238"/>
<path d="M110.855 39.5335C110.532 40.0001 110.048 40.3301 109.495 40.4593C108.767 40.6155 108.487 39.964 108.761 39.3094C109.006 38.7198 109.678 37.9267 110.374 38.0623C111.07 38.1979 111.229 38.9556 110.855 39.5335Z" fill="#E58A7B"/>
<path d="M100.064 65.0389C100.064 65.0389 98.071 82.8759 97.9147 89.6451C97.7555 96.6856 104.669 118.653 104.669 118.653L108.207 117.179C108.207 117.179 104.08 97.1072 104.669 90.1935C105.294 82.6548 107.877 65.0507 107.877 65.0507L100.064 65.0389Z" fill="#4CAF4F"/>
<path opacity="0.2" d="M105.017 69.936C103.428 73.2322 104.498 79.7508 105.359 83.613C105.686 80.8859 106.076 77.9258 106.444 75.1869C106.409 70.9768 106.082 67.7248 105.017 69.936Z" fill="black"/>
<path d="M108.051 116.011C108.069 116.011 108.47 117.138 108.47 117.138L104.389 118.854L103.746 117.657L108.051 116.011Z" fill="#4CAF4F"/>
<path d="M104.277 65.0389C104.277 65.0389 105.801 82.0032 106.81 88.3567C107.918 95.3176 112.264 118.5 112.264 118.5H116.33C116.33 118.5 113.894 95.8807 113.434 88.9877C112.933 81.5109 111.937 65.0389 111.937 65.0389H104.277Z" fill="#4CAF4F"/>
<path d="M116.391 117.441C116.409 117.441 116.527 118.576 116.527 118.576H112.058L111.739 117.273L116.391 117.441Z" fill="#4CAF4F"/>
<path opacity="0.2" d="M114.835 116.097C114.826 116.097 114.817 116.094 114.81 116.088C114.803 116.082 114.798 116.074 114.797 116.065C114.773 115.858 112.576 95.4267 112.164 89.2354C111.716 82.5192 110.813 67.6217 110.805 67.4713C110.804 67.4664 110.805 67.4615 110.806 67.4569C110.808 67.4522 110.811 67.448 110.814 67.4444C110.817 67.4408 110.821 67.4379 110.826 67.4359C110.83 67.434 110.835 67.433 110.84 67.433C110.85 67.433 110.859 67.4366 110.866 67.4432C110.873 67.4497 110.878 67.4587 110.878 67.4684C110.878 67.6187 111.789 82.5045 112.237 89.2324C112.65 95.4238 114.847 115.84 114.867 116.062C114.868 116.066 114.868 116.071 114.867 116.076C114.865 116.081 114.863 116.086 114.86 116.089C114.857 116.093 114.853 116.097 114.849 116.099C114.845 116.101 114.84 116.103 114.835 116.103V116.097Z" fill="black"/>
<path d="M106.615 37.7234C106.615 37.9032 106.503 38.0477 106.385 38.0477C106.267 38.0477 106.182 37.9032 106.193 37.7234C106.205 37.5435 106.306 37.399 106.423 37.399C106.541 37.399 106.627 37.5465 106.615 37.7234Z" fill="#263238"/>
<path d="M104.593 37.7234C104.593 37.9032 104.478 38.0477 104.363 38.0477C104.248 38.0477 104.159 37.9032 104.168 37.7234C104.177 37.5435 104.283 37.399 104.401 37.399C104.519 37.399 104.604 37.5465 104.593 37.7234Z" fill="#263238"/>
<path d="M105.229 37.8147C104.983 38.3639 104.666 38.8783 104.286 39.3448C104.581 39.6397 105.132 39.5041 105.132 39.5041L105.229 37.8147Z" fill="#DF5753"/>
<path d="M105.283 40.2559C105.276 40.2559 105.269 40.2545 105.263 40.2518C105.256 40.2491 105.251 40.2452 105.246 40.2402C105.241 40.2352 105.238 40.2293 105.235 40.2229C105.233 40.2165 105.232 40.2097 105.232 40.2028C105.233 40.1885 105.239 40.175 105.25 40.1651C105.26 40.1552 105.274 40.1497 105.288 40.1498C105.514 40.1513 105.737 40.1024 105.941 40.0064C106.145 39.9105 106.325 39.7701 106.468 39.5955C106.478 39.5866 106.491 39.5817 106.505 39.5817C106.518 39.5817 106.531 39.5866 106.541 39.5955C106.551 39.6054 106.556 39.6186 106.556 39.6323C106.556 39.6461 106.551 39.6593 106.541 39.6692C106.389 39.8548 106.196 40.0038 105.978 40.1053C105.761 40.2068 105.523 40.2583 105.283 40.2559Z" fill="#263238"/>
<path d="M106.975 37.1808C106.961 37.188 106.945 37.1918 106.929 37.1918C106.913 37.1918 106.898 37.188 106.883 37.1808C106.773 37.1095 106.648 37.0652 106.517 37.0513C106.386 37.0375 106.254 37.0546 106.132 37.1012C106.12 37.1072 106.107 37.1107 106.093 37.1116C106.08 37.1124 106.066 37.1106 106.054 37.1062C106.041 37.1018 106.03 37.0949 106.02 37.086C106.01 37.077 106.002 37.0662 105.996 37.054C105.985 37.0278 105.985 36.9983 105.995 36.9719C106.006 36.9455 106.026 36.9242 106.052 36.9125C106.206 36.8496 106.373 36.8247 106.539 36.8401C106.705 36.8555 106.864 36.9107 107.004 37.001C107.016 37.0086 107.025 37.0185 107.033 37.0299C107.04 37.0414 107.045 37.0542 107.048 37.0676C107.05 37.0811 107.05 37.0949 107.047 37.1082C107.044 37.1216 107.039 37.1342 107.031 37.1454C107.016 37.1623 106.996 37.1746 106.975 37.1808Z" fill="#263238"/>
<path d="M103.811 36.5911C103.796 36.5873 103.781 36.5792 103.77 36.5676C103.76 36.5579 103.752 36.5465 103.747 36.5338C103.742 36.5212 103.739 36.5076 103.739 36.4938C103.739 36.4801 103.742 36.4665 103.747 36.4539C103.752 36.4412 103.76 36.4297 103.77 36.4201C103.883 36.2934 104.024 36.1945 104.181 36.1311C104.339 36.0676 104.509 36.0415 104.678 36.0546C104.692 36.0566 104.705 36.0615 104.716 36.0688C104.728 36.0761 104.738 36.0858 104.746 36.0971C104.753 36.1084 104.759 36.1212 104.761 36.1347C104.764 36.1482 104.764 36.162 104.761 36.1754C104.754 36.2027 104.738 36.2268 104.715 36.2431C104.693 36.2594 104.665 36.2668 104.637 36.2639C104.503 36.2554 104.369 36.2776 104.245 36.3287C104.12 36.3798 104.01 36.4584 103.92 36.5587C103.907 36.5736 103.89 36.5846 103.87 36.5903C103.851 36.596 103.831 36.5963 103.811 36.5911Z" fill="#263238"/>
<path d="M114.903 48.6406L111.837 47.824C111.837 47.824 108.829 55.2271 107.765 55.7076C106.32 56.368 102.662 58.6559 101.105 59.7379C101.019 60.1064 101.087 61.0823 101.282 61.3506C103.935 60.8671 109.015 58.9124 110.076 57.9188C112.497 55.6516 114.903 48.6406 114.903 48.6406Z" fill="#E58A7B"/>
<path d="M112.762 121.634C112.613 121.646 112.464 121.605 112.341 121.519C112.303 121.485 112.274 121.441 112.258 121.392C112.242 121.344 112.239 121.292 112.249 121.242C112.251 121.21 112.261 121.18 112.279 121.154C112.297 121.128 112.321 121.108 112.349 121.094C112.597 120.968 113.29 121.407 113.37 121.457C113.378 121.462 113.385 121.47 113.389 121.48C113.393 121.49 113.393 121.5 113.39 121.51C113.388 121.52 113.383 121.53 113.375 121.537C113.368 121.545 113.359 121.551 113.349 121.554C113.157 121.601 112.96 121.628 112.762 121.634ZM112.467 121.174C112.445 121.169 112.422 121.169 112.4 121.174C112.388 121.18 112.379 121.189 112.373 121.2C112.366 121.211 112.363 121.223 112.364 121.236C112.356 121.27 112.358 121.306 112.368 121.34C112.378 121.373 112.397 121.403 112.423 121.427C112.538 121.531 112.827 121.542 113.207 121.469C112.981 121.32 112.726 121.219 112.459 121.174H112.467Z" fill="#4CAF4F"/>
<path d="M113.334 121.554C113.327 121.557 113.318 121.557 113.311 121.554C113.089 121.43 112.674 120.944 112.736 120.696C112.745 120.657 112.767 120.622 112.799 120.597C112.83 120.572 112.869 120.558 112.91 120.558C112.949 120.552 112.989 120.556 113.028 120.567C113.066 120.579 113.101 120.599 113.131 120.625C113.375 120.835 113.39 121.477 113.39 121.51C113.392 121.52 113.39 121.529 113.385 121.538C113.38 121.547 113.373 121.553 113.364 121.557C113.354 121.559 113.344 121.558 113.334 121.554ZM112.939 120.655H112.918C112.851 120.655 112.842 120.693 112.839 120.708C112.804 120.852 113.066 121.221 113.284 121.395C113.283 121.146 113.206 120.903 113.063 120.699C113.029 120.669 112.985 120.653 112.939 120.655Z" fill="#4CAF4F"/>
<path d="M104.935 121.265C104.754 121.328 104.558 121.328 104.377 121.265C104.336 121.243 104.302 121.211 104.276 121.172C104.251 121.133 104.236 121.088 104.233 121.041C104.229 121.012 104.233 120.982 104.244 120.955C104.255 120.928 104.272 120.904 104.295 120.885C104.531 120.673 105.495 120.885 105.604 120.926C105.614 120.929 105.623 120.935 105.63 120.944C105.636 120.952 105.64 120.963 105.639 120.973C105.64 120.984 105.637 120.995 105.631 121.005C105.625 121.014 105.617 121.022 105.607 121.026C105.39 121.124 105.165 121.204 104.935 121.265ZM104.454 120.914C104.42 120.921 104.389 120.936 104.363 120.959C104.353 120.966 104.346 120.975 104.342 120.986C104.338 120.997 104.337 121.009 104.339 121.021C104.341 121.051 104.351 121.081 104.367 121.108C104.384 121.134 104.406 121.156 104.433 121.171C104.59 121.253 104.952 121.189 105.421 120.991C105.105 120.911 104.778 120.885 104.454 120.914Z" fill="#4CAF4F"/>
<path d="M105.598 121.026H105.574C105.279 120.973 104.69 120.634 104.672 120.381C104.672 120.322 104.699 120.239 104.84 120.192C104.888 120.175 104.939 120.168 104.989 120.171C105.04 120.174 105.09 120.187 105.135 120.21C105.453 120.366 105.621 120.932 105.63 120.959C105.632 120.967 105.632 120.977 105.63 120.986C105.627 120.994 105.622 121.002 105.616 121.009C105.611 121.016 105.605 121.022 105.598 121.026ZM104.899 120.28H104.87C104.778 120.313 104.778 120.351 104.778 120.363C104.778 120.516 105.206 120.796 105.504 120.891C105.435 120.654 105.29 120.447 105.091 120.301C105.032 120.271 104.963 120.264 104.899 120.28Z" fill="#4CAF4F"/>
<path d="M101.355 59.564L98.2803 60.9791L97.9236 61.8636L99.0587 62.6272C99.0587 62.6272 101.181 62.3972 101.786 61.0322L101.355 59.564Z" fill="#E58A7B"/>
<path d="M101.485 61.4008C101.416 60.8099 101.221 60.2408 100.913 59.732L101.4 59.3665C101.766 59.9527 101.999 60.6117 102.084 61.2976L101.485 61.4008Z" fill="#263238"/>
<path d="M102.01 59.9827C102.075 60.0849 102.107 60.2047 102.101 60.3257C102.096 60.4468 102.053 60.5632 101.979 60.6591C101.905 60.7551 101.803 60.8259 101.688 60.862C101.572 60.898 101.448 60.8976 101.333 60.8607C101.217 60.8238 101.116 60.7523 101.043 60.6558C100.969 60.5593 100.928 60.4426 100.923 60.3215C100.918 60.2004 100.951 60.0809 101.017 59.9791C101.083 59.8773 101.178 59.7983 101.29 59.7527C101.416 59.6885 101.563 59.6766 101.697 59.7197C101.832 59.7628 101.944 59.8573 102.01 59.9827Z" fill="#263238"/>
<path d="M96.2018 62.1231L96.6116 62.5358L99.3712 61.3565L98.2803 60.9791L96.2018 62.1231Z" fill="#E58A7B"/>
<path opacity="0.2" d="M108.051 116.011C108.069 116.011 108.47 117.138 108.47 117.138L104.389 118.854L103.746 117.657L108.051 116.011Z" fill="black"/>
<path opacity="0.2" d="M116.391 117.441C116.409 117.441 116.527 118.576 116.527 118.576H112.058L111.739 117.273L116.391 117.441Z" fill="black"/>
<path d="M115.702 47.7916C116.512 50.4067 113.343 53.9829 113.343 53.9829L108.965 52.1963C109.484 50.6848 110.082 49.2017 110.757 47.7533C112.102 44.8551 114.882 45.1529 115.702 47.7916Z" fill="#4CAF4F"/>
<path opacity="0.2" d="M115.702 47.7916C116.512 50.4067 113.343 53.9829 113.343 53.9829L108.965 52.1963C109.484 50.6848 110.082 49.2017 110.757 47.7533C112.102 44.8551 114.882 45.1529 115.702 47.7916Z" fill="black"/>
<path d="M72.197 21.5905H70.3131V21.8941H72.197V21.5905Z" fill="#4CAF4F"/>
<path d="M96.5846 33.6095L96.3566 38.6694L96.6599 38.6831L96.8879 33.6231L96.5846 33.6095Z" fill="#4CAF4F"/>
<path d="M95.9983 22.9525H61.2089L57.9717 95.3972H92.7612L95.9983 22.9525Z" fill="#4CAF4F"/>
<path opacity="0.56" d="M94.9606 23.949H60.1711L56.934 96.3936H91.7234L94.9606 23.949Z" fill="#FAFAFA"/>
<path opacity="0.07" d="M93.9228 24.9426H59.1333L55.8932 97.3873H90.6827L93.9228 24.9426Z" fill="#4CAF4F"/>
<path d="M89.9633 56.5391H60.2684L60.0208 62.0818H89.7156L89.9633 56.5391Z" fill="white"/>
<path d="M76.5989 52.4941H60.4483L60.3392 54.9736H76.4898L76.5989 52.4941Z" fill="#4CAF4F"/>
<path d="M89.2941 71.4985H59.5992L59.3516 77.0413H89.0464L89.2941 71.4985Z" fill="white"/>
<path opacity="0.47" d="M83.8486 84.527H63.88L63.5823 91.1694H83.5509L83.8486 84.527Z" fill="#4CAF4F"/>
<path d="M82.513 92.2013H62.5445C62.5358 92.2035 62.5266 92.2035 62.5179 92.2013C62.515 92.1927 62.515 92.1833 62.5179 92.1747L62.8128 85.5293C62.8127 85.5248 62.8137 85.5203 62.8155 85.5162C62.8173 85.5121 62.8199 85.5084 62.8233 85.5053C62.8266 85.5022 62.8305 85.4999 62.8348 85.4985C62.8391 85.497 62.8436 85.4965 62.8481 85.4969H82.8167C82.8204 85.4951 82.8244 85.4941 82.8285 85.4941C82.8326 85.4941 82.8366 85.4951 82.8403 85.4969C82.8424 85.5005 82.8435 85.5046 82.8435 85.5087C82.8435 85.5128 82.8424 85.5169 82.8403 85.5205L82.5514 92.1806C82.5478 92.1875 82.5423 92.1932 82.5354 92.1969C82.5286 92.2006 82.5208 92.2021 82.513 92.2013ZM62.5798 92.1305H82.4777L82.7725 85.5559H62.8747L62.5798 92.1305Z" fill="white"/>
<path d="M73.111 67.4535H59.779L59.6699 69.9359H72.999L73.111 67.4535Z" fill="#4CAF4F"/>
<path d="M83.4682 38.6343C83.392 40.2474 82.8184 41.7974 81.8261 43.0715C81.0915 44.0338 80.1462 44.8151 79.0627 45.3553C77.9792 45.8955 76.7864 46.1803 75.5758 46.1878C74.5974 46.1952 73.6279 46.0023 72.727 45.6209C71.826 45.2395 71.0127 44.6777 70.3371 43.97C69.6615 43.2624 69.138 42.4239 68.7987 41.5063C68.4594 40.5886 68.3116 39.6113 68.3643 38.6343C68.468 36.6071 69.3422 34.6961 70.8082 33.292C72.2741 31.888 74.2211 31.097 76.2509 31.0809C77.23 31.0717 78.2005 31.2635 79.1026 31.6442C80.0046 32.025 80.819 32.5867 81.4954 33.2946C82.1718 34.0025 82.6959 34.8416 83.0352 35.76C83.3745 36.6784 83.5219 37.6567 83.4682 38.6343Z" fill="white"/>
<path d="M84.1788 32.6611C84.1595 33.0901 84.007 33.5023 83.7424 33.8405C83.5467 34.0961 83.2951 34.3036 83.0069 34.4471C82.7187 34.5907 82.4016 34.6666 82.0796 34.6689C81.7677 34.6708 81.46 34.5963 81.1835 34.4519C80.907 34.3075 80.6701 34.0975 80.4935 33.8405C80.2595 33.493 80.1437 33.0795 80.1633 32.6611C80.1918 32.1229 80.4245 31.6158 80.814 31.2433C81.2035 30.8708 81.7205 30.6608 82.2595 30.6563C82.5195 30.654 82.7772 30.7048 83.0168 30.8059C83.2564 30.9069 83.4728 31.0559 83.6526 31.2437C83.8324 31.4316 83.9719 31.6542 84.0624 31.898C84.1529 32.1418 84.1925 32.4015 84.1788 32.6611Z" fill="#4CAF4F"/>
<path d="M63.4673 59.3104C63.4532 59.548 63.3495 59.7714 63.1771 59.9355C63.0048 60.0996 62.7766 60.1923 62.5386 60.1949C62.4237 60.1963 62.3097 60.174 62.2038 60.1296C62.0978 60.0852 62.002 60.0195 61.9225 59.9366C61.8429 59.8537 61.7811 59.7554 61.7411 59.6476C61.701 59.5399 61.6835 59.4252 61.6895 59.3104C61.7023 59.0723 61.8056 58.8482 61.9782 58.6837C62.1509 58.5193 62.3798 58.4271 62.6182 58.4259C62.733 58.425 62.8468 58.4475 62.9526 58.4921C63.0583 58.5367 63.1539 58.6024 63.2334 58.6852C63.3129 58.768 63.3747 58.8661 63.4149 58.9737C63.4551 59.0812 63.4729 59.1958 63.4673 59.3104Z" fill="#263238"/>
<path d="M67.4415 59.3104C67.4281 59.5483 67.3246 59.772 67.1521 59.9363C66.9796 60.1006 66.751 60.1931 66.5128 60.1949C66.3982 60.1959 66.2845 60.1734 66.1789 60.1288C66.0733 60.0842 65.9779 60.0184 65.8986 59.9355C65.8194 59.8527 65.7579 59.7545 65.718 59.647C65.6781 59.5395 65.6607 59.4249 65.6667 59.3104C65.6794 59.0729 65.7823 58.8491 65.9543 58.6848C66.1263 58.5204 66.3546 58.4279 66.5924 58.426C66.7074 58.4246 66.8213 58.4468 66.9273 58.4912C67.0333 58.5357 67.129 58.6014 67.2086 58.6843C67.2882 58.7672 67.3499 58.8655 67.39 58.9732C67.4301 59.0809 67.4476 59.1957 67.4415 59.3104Z" fill="#263238"/>
<path d="M71.4188 59.3104C71.4054 59.5483 71.3019 59.772 71.1294 59.9363C70.9569 60.1006 70.7283 60.1931 70.4901 60.1949C70.3753 60.1959 70.2616 60.1734 70.1558 60.1288C70.05 60.0842 69.9544 60.0185 69.8749 59.9357C69.7954 59.8529 69.7337 59.7547 69.6935 59.6472C69.6533 59.5397 69.6354 59.4251 69.641 59.3104C69.6545 59.0726 69.758 58.8488 69.9305 58.6846C70.103 58.5203 70.3315 58.4278 70.5697 58.426C70.6846 58.4246 70.7986 58.4468 70.9046 58.4912C71.0106 58.5357 71.1063 58.6014 71.1859 58.6843C71.2655 58.7672 71.3272 58.8655 71.3673 58.9732C71.4073 59.0809 71.4249 59.1957 71.4188 59.3104Z" fill="#263238"/>
<path d="M62.798 74.2699C62.7838 74.5075 62.6801 74.7308 62.5078 74.895C62.3354 75.0591 62.1073 75.1518 61.8693 75.1544C61.7545 75.1553 61.6407 75.1328 61.5349 75.0882C61.4292 75.0436 61.3336 74.9779 61.2541 74.8951C61.1746 74.8123 61.1128 74.7142 61.0726 74.6066C61.0324 74.4991 61.0146 74.3845 61.0202 74.2699C61.0337 74.0321 61.1371 73.8083 61.3096 73.644C61.4821 73.4797 61.7107 73.3873 61.9489 73.3854C62.0637 73.3845 62.1774 73.407 62.2832 73.4515C62.389 73.4961 62.4846 73.5618 62.5641 73.6446C62.6436 73.7274 62.7053 73.8256 62.7455 73.9331C62.7858 74.0406 62.8036 74.1552 62.798 74.2699Z" fill="#263238"/>
<path d="M66.7724 74.2699C66.7589 74.5072 66.6558 74.7306 66.484 74.8948C66.3121 75.059 66.0843 75.1518 65.8466 75.1544C65.7317 75.1557 65.6177 75.1335 65.5117 75.0891C65.4058 75.0447 65.31 74.979 65.2304 74.8961C65.1509 74.8132 65.0891 74.7148 65.0491 74.6071C65.009 74.4994 64.9914 74.3846 64.9975 74.2699C65.011 74.0321 65.1145 73.8083 65.287 73.644C65.4595 73.4797 65.688 73.3873 65.9262 73.3854C66.0409 73.3844 66.1545 73.407 66.2601 73.4516C66.3658 73.4962 66.4612 73.5619 66.5404 73.6448C66.6197 73.7276 66.6812 73.8258 66.721 73.9333C66.7609 74.0409 66.7784 74.1554 66.7724 74.2699Z" fill="#263238"/>
<path d="M70.7584 74.2699C70.7449 74.5077 70.6414 74.7315 70.4689 74.8958C70.2965 75.0601 70.0679 75.1525 69.8297 75.1544C69.715 75.1549 69.6015 75.1321 69.4959 75.0874C69.3903 75.0427 69.2949 74.977 69.2155 74.8942C69.1361 74.8115 69.0743 74.7135 69.0339 74.6062C68.9936 74.4989 68.9754 74.3845 68.9806 74.2699C68.9948 74.0323 69.0985 73.809 69.2708 73.6448C69.4432 73.4807 69.6713 73.388 69.9093 73.3854C70.0242 73.3841 70.1382 73.4063 70.2442 73.4507C70.3501 73.4951 70.4459 73.5608 70.5255 73.6437C70.6051 73.7266 70.6668 73.825 70.7069 73.9327C70.7469 74.0404 70.7645 74.1552 70.7584 74.2699Z" fill="#263238"/>
<path d="M74.7267 74.2699C74.7125 74.5075 74.6088 74.7308 74.4365 74.895C74.2641 75.0591 74.036 75.1518 73.798 75.1544C73.6833 75.1549 73.5697 75.1321 73.4641 75.0874C73.3586 75.0426 73.2632 74.9769 73.1837 74.8942C73.1043 74.8115 73.0426 74.7135 73.0022 74.6062C72.9618 74.4988 72.9437 74.3844 72.9489 74.2699C72.963 74.0323 73.0667 73.8089 73.2391 73.6448C73.4114 73.4807 73.6396 73.388 73.8776 73.3854C73.9924 73.3845 74.1061 73.407 74.2119 73.4515C74.3177 73.4961 74.4133 73.5618 74.4928 73.6446C74.5723 73.7274 74.634 73.8256 74.6742 73.9331C74.7144 74.0406 74.7323 74.1552 74.7267 74.2699Z" fill="#263238"/>
<path d="M78.7187 74.2699C78.7045 74.5075 78.6008 74.7308 78.4285 74.895C78.2561 75.0591 78.028 75.1518 77.79 75.1544C77.6751 75.1557 77.5611 75.1335 77.4551 75.0891C77.3491 75.0447 77.2534 74.979 77.1738 74.8961C77.0942 74.8132 77.0325 74.7148 76.9924 74.6071C76.9524 74.4994 76.9348 74.3846 76.9409 74.2699C76.9543 74.0321 77.0578 73.8083 77.2303 73.644C77.4028 73.4797 77.6314 73.3873 77.8696 73.3854C77.9844 73.3845 78.0981 73.407 78.2039 73.4515C78.3097 73.4961 78.4053 73.5618 78.4848 73.6446C78.5642 73.7274 78.626 73.8256 78.6662 73.9331C78.7064 74.0406 78.7243 74.1552 78.7187 74.2699Z" fill="#263238"/>
<path d="M78.1153 38.2409C79.3493 37.0341 79.4148 35.0999 78.2616 33.9206C77.1083 32.7413 75.1731 32.7635 73.9391 33.9703C72.7051 35.177 72.6396 37.1113 73.7928 38.2906C74.9461 39.4699 76.8813 39.4476 78.1153 38.2409Z" fill="#4CAF4F"/>
<path d="M81.8261 43.0714C81.0915 44.0337 80.1462 44.815 79.0628 45.3552C77.9793 45.8954 76.7864 46.1802 75.5758 46.1877C74.4018 46.1976 73.2434 45.9186 72.2028 45.3751C71.1621 44.8317 70.2712 44.0405 69.6085 43.0714C71.0414 41.6444 73.3086 40.7128 75.8205 40.7128C78.3324 40.7128 80.52 41.6444 81.8261 43.0714Z" fill="#4CAF4F"/>
<path opacity="0.1" d="M78.1153 38.2409C79.3493 37.0341 79.4148 35.0999 78.2616 33.9206C77.1083 32.7413 75.1731 32.7635 73.9391 33.9703C72.7051 35.177 72.6396 37.1113 73.7928 38.2906C74.9461 39.4699 76.8813 39.4476 78.1153 38.2409Z" fill="white"/>
<path opacity="0.1" d="M81.8261 43.0714C81.0915 44.0337 80.1462 44.815 79.0628 45.3552C77.9793 45.8954 76.7864 46.1802 75.5758 46.1877C74.4018 46.1976 73.2434 45.9186 72.2028 45.3751C71.1621 44.8317 70.2712 44.0405 69.6085 43.0714C71.0414 41.6444 73.3086 40.7128 75.8205 40.7128C78.3324 40.7128 80.52 41.6444 81.8261 43.0714Z" fill="white"/>
<path d="M38.4483 63.4173C38.1682 64.0305 37.8734 64.7057 37.6169 65.3602C37.3604 66.0147 37.098 66.6899 36.871 67.3621C36.4075 68.6868 36.0545 70.0477 35.8155 71.4307L35.7507 71.8641C35.7445 71.9384 35.7515 72.0133 35.7713 72.0852C35.8409 72.3295 35.9505 72.5607 36.0956 72.7692C36.4742 73.3089 36.9134 73.8035 37.4046 74.2433C37.9225 74.725 38.4658 75.1787 39.0321 75.6025C39.5982 76.0388 40.1937 76.4634 40.7804 76.8643L40.2291 77.8992C38.8281 77.2888 37.4984 76.5265 36.2637 75.6261C35.6049 75.1457 35.0105 74.5829 34.4947 73.9514C34.189 73.5756 33.9506 73.1497 33.7901 72.6925C33.6967 72.407 33.649 72.1085 33.6486 71.8081C33.6486 71.7373 33.6486 71.6341 33.6486 71.584V71.4395L33.678 71.1447C33.8471 69.6087 34.17 68.0935 34.6421 66.6221C34.8721 65.8968 35.1168 65.1745 35.3969 64.4698C35.677 63.7652 35.9659 63.0753 36.3226 62.3589L38.4483 63.4173Z" fill="#E58A7B"/>
<path d="M40.3647 76.6816L42.4491 75.6261L41.9095 77.9139C41.9095 77.9139 40.4796 78.3149 39.8163 77.6191L40.3647 76.6816Z" fill="#E58A7B"/>
<path d="M44.3566 76.0005L43.8023 77.8933L41.9095 77.9139L42.4491 75.6261L44.3566 76.0005Z" fill="#E58A7B"/>
<path d="M47.299 52.379C47.4105 52.7876 47.5657 53.183 47.7619 53.5583C47.7045 53.6233 47.6307 53.6716 47.5482 53.6981C47.4657 53.7246 47.3775 53.7282 47.2931 53.7087L47.299 52.379Z" fill="#DF5753"/>
<path d="M47.2371 52.3967C47.3592 52.3967 47.4582 52.2449 47.4582 52.0577C47.4582 51.8704 47.3592 51.7186 47.2371 51.7186C47.115 51.7186 47.016 51.8704 47.016 52.0577C47.016 52.2449 47.115 52.3967 47.2371 52.3967Z" fill="#263238"/>
<path d="M47.1722 51.7304L47.6204 51.6036C47.6204 51.6036 47.4022 51.9515 47.1722 51.7304Z" fill="#263238"/>
<path d="M41.541 54.5431C41.8093 55.914 42.0776 58.4289 41.1165 59.3458C41.1165 59.3458 41.4938 60.7374 44.0441 60.7374C46.8479 60.7374 45.3826 59.3458 45.3826 59.3458C43.8524 58.9802 43.8908 57.8451 44.1591 56.7779L41.541 54.5431Z" fill="#E58A7B"/>
<path d="M40.7951 51.418C40.9367 53.7088 40.9484 54.6817 42.1042 55.8581C43.8466 57.627 46.6297 56.9548 47.1752 54.6788C47.6675 52.615 47.355 49.2186 45.1114 48.3076C44.6189 48.1047 44.0828 48.0308 43.5538 48.0929C43.0248 48.155 42.5204 48.351 42.0882 48.6624C41.6561 48.9738 41.3106 49.3903 41.0843 49.8725C40.858 50.3547 40.7585 50.8866 40.7951 51.418Z" fill="#E58A7B"/>
<path d="M41.0221 48.8412C39.8723 49.2598 38.3392 48.9473 38.9406 52.4941C39.5775 56.2501 38.5986 57.4855 38.5986 57.4855C38.5986 57.4855 42.9591 58.4142 47.411 57.4294C47.411 57.4294 46.0518 55.0531 46.4322 53.3019C46.9186 51.0907 46.5354 50.274 46.5354 50.274C46.5354 50.274 42.6378 48.2515 41.0221 48.8412Z" fill="#263238"/>
<path d="M45.8867 52.612C45.8879 53.0475 46.0126 53.4739 46.2464 53.8414C46.5589 54.319 46.9275 54.1362 47.0188 53.6291C47.1014 53.1839 47.0395 52.3967 46.6415 52.0901C46.2435 51.7835 45.8926 52.0842 45.8867 52.612Z" fill="#E58A7B"/>
<path d="M40.0226 49.2274C39.6924 48.2987 41.2668 46.8688 44.5983 47.4585C47.9299 48.0481 48.0743 50.8224 48.0743 50.8224L47.4021 50.0205L47.4316 50.8637L44.0087 51.5212L40.0226 49.2274Z" fill="#263238"/>
<path d="M40.3057 59.502C40.286 59.3674 40.3197 59.2304 40.3995 59.1203C40.4794 59.0102 40.5991 58.9355 40.7332 58.9124C41.7709 58.7414 44.1295 58.3935 45.3147 58.5586C46.1992 58.6824 46.4292 59.1954 46.4675 59.617C46.4735 59.6908 46.4636 59.7651 46.4386 59.8348C46.4135 59.9045 46.3738 59.968 46.3221 60.021C46.2704 60.0741 46.208 60.1155 46.139 60.1424C46.07 60.1694 45.996 60.1812 45.9221 60.1772L40.798 59.9472C40.6772 59.9411 40.5622 59.8935 40.4725 59.8124C40.3828 59.7312 40.3238 59.6216 40.3057 59.502Z" fill="#4CAF4F"/>
<path opacity="0.6" d="M40.3057 59.502C40.286 59.3674 40.3197 59.2304 40.3995 59.1203C40.4794 59.0102 40.5991 58.9355 40.7332 58.9124C41.7709 58.7414 44.1295 58.3935 45.3147 58.5586C46.1992 58.6824 46.4292 59.1954 46.4675 59.617C46.4735 59.6908 46.4636 59.7651 46.4386 59.8348C46.4135 59.9045 46.3738 59.968 46.3221 60.021C46.2704 60.0741 46.208 60.1155 46.139 60.1424C46.07 60.1694 45.996 60.1812 45.9221 60.1772L40.798 59.9472C40.6772 59.9411 40.5622 59.8935 40.4725 59.8124C40.3828 59.7312 40.3238 59.6216 40.3057 59.502Z" fill="black"/>
<path d="M43.2687 111.008L45.1703 112.329L48.3515 108.016L46.4499 106.698L43.2687 111.008Z" fill="#E58A7B"/>
<path d="M38.8345 110.923L40.8422 112.067L43.6578 107.506L41.6501 106.362L38.8345 110.923Z" fill="#E58A7B"/>
<path d="M48.3486 108.016L46.7094 110.239L44.8077 108.921L46.447 106.698L48.3486 108.016Z" fill="#CF6F64"/>
<path d="M41.6472 106.362L43.6579 107.509L42.2074 109.858L40.1967 108.711L41.6472 106.362Z" fill="#CF6F64"/>
<path d="M44.8725 73.9014C44.8725 73.9014 52.2962 83.2562 50.9017 92.2042C49.7784 99.4304 43.2627 109.216 43.2627 109.216L40.1995 107.694C42.3587 103.368 44.2012 98.8905 45.7128 94.2974C46.1789 92.8715 46.3149 91.3582 46.1106 89.872C45.9063 88.3857 45.367 86.9653 44.5334 85.718C40.7715 80.2254 34.7452 83.495 38.7991 73.9014H44.8725Z" fill="#4CAF4F"/>
<path opacity="0.6" d="M44.8725 73.9014C44.8725 73.9014 52.2962 83.2562 50.9017 92.2042C49.7784 99.4304 43.2627 109.216 43.2627 109.216L40.1995 107.694C42.3587 103.368 44.2012 98.8905 45.7128 94.2974C46.1789 92.8715 46.3149 91.3582 46.1106 89.872C45.9063 88.3857 45.367 86.9653 44.5334 85.718C40.7715 80.2254 34.7452 83.495 38.7991 73.9014H44.8725Z" fill="black"/>
<path opacity="0.4" d="M48.5136 79.91L47.4346 78.8368C47.4346 78.9223 49.5249 91.8268 50.1116 95.4532C50.4578 94.3938 50.7229 93.3097 50.9047 92.2101C51.5946 87.8201 50.1529 83.3358 48.5136 79.91Z" fill="black"/>
<path d="M48.1864 73.9014C48.1864 73.9014 57.1255 85.659 57.3791 92.7083C57.5884 98.6049 47.6498 110.029 47.6498 110.029L44.7605 108.16C44.7605 108.16 50.5774 100.047 52.0427 93.4189C51.4767 86.8501 39.5067 73.9014 39.5067 73.9014H48.1864Z" fill="#4CAF4F"/>
<path opacity="0.6" d="M48.1864 73.9014C48.1864 73.9014 57.1255 85.659 57.3791 92.7083C57.5884 98.6049 47.6498 110.029 47.6498 110.029L44.7605 108.16C44.7605 108.16 50.5774 100.047 52.0427 93.4189C51.4767 86.8501 39.5067 73.9014 39.5067 73.9014H48.1864Z" fill="black"/>
<path d="M37.1275 59.8706C36.1723 60.0977 35.2554 63.5707 35.2554 63.5707L38.9908 66.0649C38.9908 66.0649 40.235 63.3172 39.7986 62.1143C39.3476 60.8613 38.3275 59.5847 37.1275 59.8706Z" fill="#4CAF4F"/>
<path opacity="0.2" d="M37.8587 62.1084L37.5992 65.1363L38.9879 66.0679C39.3713 65.2047 39.6552 64.3006 39.834 63.3732L37.8587 62.1084Z" fill="black"/>
<path d="M49.292 59.9384C49.292 59.9384 50.3946 60.3246 48.1864 73.8984H38.7932C38.9524 70.0657 38.9554 67.7071 37.1274 59.8706C38.4427 59.5995 39.7758 59.4241 41.1164 59.3458C42.5367 59.244 43.9623 59.244 45.3826 59.3458C47.2164 59.5138 49.292 59.9384 49.292 59.9384Z" fill="#4CAF4F"/>
<path d="M50.2472 62.1083C50.4595 62.6979 50.6836 63.3318 50.9194 63.9421C51.1553 64.5524 51.3794 65.1804 51.6182 65.7995L52.3405 67.651L52.5233 68.1139L52.6176 68.3439L52.6619 68.4588C52.6619 68.4795 52.6619 68.4795 52.6619 68.4765C52.608 68.4006 52.5374 68.338 52.4555 68.2937C52.3388 68.2251 52.2074 68.1857 52.0722 68.1788C51.9599 68.1753 51.8482 68.1964 51.7449 68.2407C51.6093 68.3026 51.6093 68.3291 51.6123 68.3262C51.6368 68.3065 51.6586 68.2837 51.6771 68.2584C51.8403 68.0441 51.9816 67.814 52.0987 67.5714C52.2373 67.3002 52.37 67.0113 52.5027 66.7194C52.7621 66.1297 53.0009 65.5194 53.2397 64.9032C53.4785 64.2871 53.7055 63.665 53.9267 63.037L54.5989 61.156L55.7339 61.4508C55.5099 62.7952 55.2209 64.1043 54.8731 65.4369C54.705 66.1002 54.5075 66.7577 54.2834 67.4211C54.1714 67.7542 54.0475 68.0844 53.906 68.4235C53.7585 68.7914 53.5769 69.1448 53.3635 69.4789C53.2851 69.5914 53.1984 69.6978 53.1041 69.7974C52.9535 69.96 52.7708 70.0895 52.5675 70.1777C52.3871 70.2551 52.1917 70.2914 51.9956 70.2838C51.7758 70.2756 51.5617 70.2117 51.3735 70.0981C51.1514 69.9595 50.967 69.768 50.8369 69.5409C50.7927 69.4642 50.7543 69.3875 50.7278 69.3315L50.6718 69.2195L50.5597 68.9895L50.3357 68.5326C50.0409 67.9193 49.746 67.3002 49.4895 66.6781C49.233 66.056 48.9618 65.4251 48.7082 64.7912C48.4547 64.1573 48.2277 63.5235 48.0125 62.8395L50.2472 62.1083Z" fill="#E58A7B"/>
<path d="M49.292 59.9384C50.4212 60.2067 51.6919 63.5442 51.6919 63.5442L48.3338 66.401C48.3338 66.401 46.161 62.7629 46.6003 61.5629C47.0572 60.3129 47.8179 59.5876 49.292 59.9384Z" fill="#4CAF4F"/>
<path d="M55.1325 60.1006L56.3118 59.1158L57.1314 60.3924L56.527 61.4568C56.527 61.4568 55.5659 62.3412 54.7168 61.8902C54.582 61.5872 54.5497 61.2486 54.6247 60.9257C54.6998 60.6027 54.878 60.3131 55.1325 60.1006Z" fill="#E58A7B"/>
<path d="M58.4405 59.1188L58.352 59.4402L56.4858 59.7527L56.303 59.1158L58.4405 59.1188Z" fill="#E58A7B"/>
<path d="M47.8797 110.18L44.5128 108.004L45.1172 106.954L48.8998 109.281L47.8797 110.18Z" fill="#4CAF4F"/>
<path d="M42.1601 111.913C41.8647 111.877 41.5809 111.777 41.3287 111.619C41.3183 111.615 41.3093 111.608 41.3029 111.599C41.2965 111.59 41.2931 111.579 41.2931 111.568C41.2931 111.557 41.2965 111.547 41.3029 111.538C41.3093 111.529 41.3183 111.522 41.3287 111.518C41.4201 111.489 42.2132 111.244 42.4432 111.433C42.469 111.454 42.4887 111.482 42.5001 111.514C42.5115 111.545 42.5142 111.58 42.508 111.613C42.5039 111.666 42.4863 111.717 42.4569 111.761C42.4275 111.806 42.3873 111.842 42.34 111.866C42.2848 111.896 42.223 111.912 42.1601 111.913ZM41.4968 111.589C41.8653 111.778 42.1601 111.846 42.3016 111.775C42.3325 111.758 42.3584 111.733 42.377 111.703C42.3955 111.673 42.4062 111.639 42.4078 111.604C42.4078 111.557 42.4078 111.536 42.3812 111.524C42.2574 111.424 41.8152 111.501 41.4909 111.589H41.4968Z" fill="#263238"/>
<path d="M41.3494 111.639C41.3338 111.639 41.319 111.632 41.3081 111.621C41.3037 111.613 41.3014 111.604 41.3014 111.595C41.3014 111.586 41.3037 111.576 41.3081 111.568C41.3081 111.542 41.4997 110.902 41.8004 110.758C41.8388 110.74 41.8806 110.731 41.9228 110.731C41.965 110.731 42.0067 110.74 42.0451 110.758C42.0865 110.771 42.1224 110.797 42.147 110.833C42.1715 110.869 42.1834 110.912 42.1808 110.955C42.1601 111.22 41.6206 111.586 41.3729 111.648L41.3494 111.639ZM41.9213 110.834C41.8926 110.835 41.8645 110.842 41.8388 110.855C41.656 110.943 41.5056 111.288 41.4319 111.498C41.6914 111.388 42.0481 111.1 42.0599 110.937C42.0599 110.911 42.0599 110.878 41.9921 110.849C41.97 110.837 41.9461 110.829 41.9213 110.825V110.834Z" fill="#263238"/>
<path d="M46.3673 113.187C46.0341 113.187 45.5713 112.76 45.3177 112.497C45.3112 112.488 45.3077 112.477 45.3077 112.466C45.3077 112.455 45.3112 112.444 45.3177 112.435C45.3235 112.426 45.3318 112.418 45.3417 112.413C45.3515 112.408 45.3626 112.405 45.3737 112.406C45.4916 112.406 46.5147 112.559 46.6592 112.848C46.6745 112.874 46.6825 112.903 46.6825 112.933C46.6825 112.964 46.6745 112.993 46.6592 113.019C46.6375 113.064 46.6048 113.103 46.564 113.132C46.5233 113.16 46.4759 113.179 46.4262 113.184L46.3673 113.187ZM45.5123 112.538C45.8838 112.898 46.211 113.099 46.3968 113.075C46.4293 113.071 46.4603 113.059 46.487 113.04C46.5137 113.021 46.5354 112.995 46.5501 112.966C46.5567 112.956 46.5602 112.944 46.5602 112.932C46.5602 112.92 46.5567 112.908 46.5501 112.898C46.4734 112.739 45.928 112.603 45.5123 112.538Z" fill="#263238"/>
<path d="M45.5448 112.524C45.4786 112.525 45.4125 112.521 45.3473 112.509C45.3382 112.507 45.3296 112.504 45.3224 112.498C45.3151 112.492 45.3095 112.485 45.306 112.476C45.3016 112.468 45.2993 112.458 45.2993 112.448C45.2993 112.439 45.3016 112.429 45.306 112.42C45.3237 112.4 45.7217 111.919 46.0991 111.887C46.2059 111.878 46.3118 111.912 46.3939 111.981C46.5089 112.081 46.503 112.17 46.4735 112.226C46.3998 112.426 45.8898 112.524 45.5448 112.524ZM45.4682 112.414C45.7984 112.432 46.3261 112.323 46.3939 112.179C46.3939 112.179 46.4175 112.131 46.3409 112.067C46.3104 112.04 46.2747 112.02 46.2362 112.008C46.1976 111.996 46.157 111.992 46.1168 111.996C45.8626 112.067 45.6362 112.214 45.4682 112.417V112.414Z" fill="#263238"/>
<path d="M41.429 111.321L38.9289 110.613C38.8858 110.6 38.8394 110.603 38.7986 110.622C38.7578 110.641 38.7254 110.675 38.7077 110.716L37.8645 112.612C37.8447 112.661 37.8354 112.713 37.8373 112.765C37.8391 112.818 37.852 112.869 37.8751 112.916C37.8982 112.963 37.931 113.005 37.9714 113.038C38.0117 113.072 38.0587 113.096 38.1092 113.11C38.9937 113.34 39.4183 113.405 40.518 113.721C41.1961 113.909 42.1631 114.26 43.0977 114.525C44.0323 114.791 44.3448 113.88 43.9822 113.685C42.3429 112.818 42.2132 112.211 41.7651 111.562C41.6848 111.445 41.5659 111.359 41.429 111.321Z" fill="#4CAF4F"/>
<path d="M45.3855 112.152L43.251 110.678C43.2148 110.652 43.1702 110.639 43.1256 110.644C43.081 110.648 43.0396 110.669 43.0092 110.702L41.594 112.223C41.5595 112.262 41.5338 112.308 41.5186 112.358C41.5033 112.408 41.4989 112.461 41.5056 112.513C41.5123 112.565 41.5299 112.615 41.5574 112.659C41.5848 112.704 41.6215 112.742 41.6648 112.771C42.4166 113.275 42.8058 113.479 43.7463 114.13C44.3359 114.531 45.4769 115.422 46.2729 115.976C47.0689 116.53 47.6615 115.77 47.3785 115.469C46.1108 114.116 45.8336 113.267 45.6243 112.497C45.588 112.357 45.5034 112.235 45.3855 112.152Z" fill="#4CAF4F"/>
<path d="M43.655 109.41L39.8075 107.497L40.2055 106.453L44.3154 108.47L43.655 109.41Z" fill="#4CAF4F"/>
<path d="M38.6518 73.3471L38.3275 74.1962C38.295 74.2611 38.3717 74.3289 38.4808 74.3289H48.2336C48.3191 74.3289 48.3899 74.2876 48.3958 74.2346L48.4783 73.3914C48.4783 73.3353 48.4105 73.2852 48.3191 73.2852H38.8051C38.7764 73.2825 38.7476 73.2867 38.7209 73.2975C38.6942 73.3083 38.6705 73.3253 38.6518 73.3471Z" fill="#4CAF4F"/>
<path opacity="0.4" d="M38.6518 73.3471L38.3275 74.1962C38.295 74.2611 38.3717 74.3289 38.4808 74.3289H48.2336C48.3191 74.3289 48.3899 74.2876 48.3958 74.2346L48.4783 73.3914C48.4783 73.3353 48.4105 73.2852 48.3191 73.2852H38.8051C38.7764 73.2825 38.7476 73.2867 38.7209 73.2975C38.6942 73.3083 38.6705 73.3253 38.6518 73.3471Z" fill="white"/>
<path d="M40.1877 74.4114H39.9312C39.8811 74.4114 39.8428 74.3849 39.8457 74.3525L39.9666 73.2587C39.9666 73.2292 40.0138 73.2026 40.0639 73.2026H40.3204C40.3705 73.2026 40.4089 73.2292 40.4059 73.2587L40.285 74.3525C40.2821 74.3849 40.2379 74.4114 40.1877 74.4114Z" fill="#4CAF4F"/>
<path d="M46.2022 74.4114H45.9487C45.8986 74.4114 45.8602 74.3849 45.8632 74.3525L45.9811 73.2587C45.9811 73.2292 46.0312 73.2026 46.0814 73.2026H46.3349C46.385 73.2026 46.4263 73.2292 46.4204 73.2587L46.3025 74.3525C46.2877 74.3849 46.2553 74.4114 46.2022 74.4114Z" fill="#4CAF4F"/>
<g style="mix-blend-mode:multiply">
<path d="M39.9637 124.34C44.3259 124.34 47.8621 124.084 47.8621 123.768C47.8621 123.452 44.3259 123.196 39.9637 123.196C35.6015 123.196 32.0653 123.452 32.0653 123.768C32.0653 124.084 35.6015 124.34 39.9637 124.34Z" fill="#F5F5F5"/>
</g>
<path d="M44.7753 122.96C43.3778 122.554 41.827 122.032 40.8895 121.486C40.8629 121.469 40.8335 121.46 40.8069 121.445V115.118H43.6343C43.8489 115.105 44.0506 115.011 44.1981 114.855C44.3455 114.698 44.4277 114.491 44.4277 114.276C44.4277 114.061 44.3455 113.854 44.1981 113.698C44.0506 113.542 43.8489 113.447 43.6343 113.435H40.8217V84.5947H39.1235V113.435H36.3138C36.1991 113.428 36.0841 113.445 35.9761 113.484C35.8681 113.523 35.7692 113.584 35.6856 113.663C35.602 113.742 35.5353 113.837 35.4898 113.942C35.4442 114.048 35.4207 114.161 35.4207 114.276C35.4207 114.391 35.4442 114.505 35.4898 114.611C35.5353 114.716 35.602 114.811 35.6856 114.89C35.7692 114.969 35.8681 115.03 35.9761 115.069C36.0841 115.108 36.1991 115.125 36.3138 115.118H39.1235V121.436C39.0969 121.436 39.0704 121.46 39.0439 121.477C38.0916 122.032 36.5526 122.554 35.1551 122.952C35.0607 122.98 34.9797 123.042 34.9266 123.125C34.8736 123.208 34.852 123.307 34.8659 123.405C34.8798 123.503 34.9282 123.592 35.0024 123.657C35.0765 123.722 35.1715 123.758 35.2701 123.759H44.6603C44.7545 123.753 44.8437 123.714 44.913 123.65C44.9822 123.586 45.0273 123.5 45.0408 123.406C45.0542 123.313 45.0352 123.218 44.9869 123.136C44.9386 123.055 44.8639 122.993 44.7753 122.96Z" fill="#E0E0E0"/>
<path d="M45.2086 81.6582H34.7246C33.8811 81.6582 33.1974 82.342 33.1974 83.1854V86.3017C33.1974 87.1452 33.8811 87.8289 34.7246 87.8289H45.2086C46.0521 87.8289 46.7358 87.1452 46.7358 86.3017V83.1854C46.7358 82.342 46.0521 81.6582 45.2086 81.6582Z" fill="#4CAF4F"/>
<path d="M34.6273 87.8319V88.3685C34.6273 88.8107 35.1079 89.1704 35.6975 89.1704H44.2475C44.8371 89.1704 45.3177 88.8107 45.3177 88.3685V87.8319H34.6273Z" fill="#4CAF4F"/>
<path opacity="0.3" d="M34.6273 87.8319V88.3685C34.6273 88.8107 35.1079 89.1704 35.6975 89.1704H44.2475C44.8371 89.1704 45.3177 88.8107 45.3177 88.3685V87.8319H34.6273Z" fill="white"/>
</svg>
